<?xml version="1.0" standalone="no"?>
<!DOCTYPE svg PUBLIC "-//W3C//DTD SVG 20010904//EN"
 "http://www.w3.org/TR/2001/REC-SVG-20010904/DTD/svg10.dtd">
<svg version="1.0" xmlns="http://www.w3.org/2000/svg"
 width="1280.000000pt" height="1280.000000pt" viewBox="0 0 1280.000000 1280.000000"
 preserveAspectRatio="xMidYMid meet">
<metadata>
Created by potrace 1.16, written by Peter Selinger 2001-2019
</metadata>
<g transform="translate(0.000000,1280.000000) scale(0.100000,-0.100000)"
fill="#000000" stroke="none">
<path d="M7227 10459 c-73 -8 -171 -48 -234 -96 -58 -44 -121 -137 -144 -215
-18 -58 -21 -88 -17 -177 4 -99 7 -114 41 -186 34 -71 56 -97 250 -294 117
-119 404 -412 639 -651 394 -402 494 -497 1306 -1235 483 -440 879 -801 878
-802 -1 0 -275 16 -611 38 l-610 38 -3450 1 c-3031 0 -3458 -2 -3508 -15 -156
-40 -263 -138 -318 -290 -32 -86 -32 -264 0 -350 55 -152 162 -250 318 -290
50 -13 477 -15 3508 -15 l3450 1 610 38 c336 21 611 38 612 37 2 -2 -399 -368
-891 -814 l-894 -812 -613 -626 c-338 -345 -626 -644 -641 -666 -50 -73 -71
-144 -76 -256 -4 -88 -1 -113 18 -173 69 -214 276 -336 517 -307 82 10 176 52
257 117 33 27 874 863 1867 1858 1702 1703 1809 1812 1838 1874 64 138 64 280
0 418 -29 62 -136 170 -1868 1903 -1318 1319 -1853 1847 -1897 1875 -102 65
-204 87 -337 72z"/>
</g>
</svg>
